<?xml version="1.0" encoding="utf-8"?>
<!-- Generator: Adobe Illustrator 25.0.1, SVG Export Plug-In . SVG Version: 6.00 Build 0)  -->
<svg version="1.0" id="Layer_1" xmlns="http://www.w3.org/2000/svg" xmlns:xlink="http://www.w3.org/1999/xlink" x="0px" y="0px"
	 viewBox="0 0 980 597.8" style="enable-background:new 0 0 980 597.8;" xml:space="preserve">
<style type="text/css">
	.st0{fill:#121A2C;}
	.st1{fill:#FEFFFF;}
	.st2{fill:#016666;}
	.st3{fill:#79455B;}
	.st4{fill:#C8842C;}
	.st5{fill:#02A484;}
	.st6{fill:#1565EA;}
	.st7{fill:#FDFFFF;}
	.st8{fill:#FFCC34;}
	.st9{fill:#FFFFFF;}
</style>
<path class="st0" d="M302.5,335.9l1.2-8.6c7.8,5.1,16.9,7.7,26.2,7.8c13.7,0,21.4-5.4,21.4-14.9c0-25-49.6-8.3-49.6-40.8
	c0-15.3,10-23.6,28-23.6c17.3,0,25.6,7.2,27.1,19.2l-8.5,1.7c-1.3-9-7.4-13.3-18.8-13.3c-12,0-19.1,5.4-19.1,15.2
	c0,26.1,49.2,8,49.5,41.4c0.1,15.6-9.9,23.3-29.9,23.3C315.3,343,307,338.9,302.5,335.9z"/>
<path class="st0" d="M382,291.6v35.8c0,6.6,2.9,8.1,7.3,8.1c3,0,5.9-0.7,8.6-1.9l0.7,7.5c-3.7,1.3-7.5,2-11.4,1.9
	c-8.8,0-13.7-3.1-13.7-15.5v-35.9H363v-7.2h10.5v-16.7h8.5v16.7h17.9v7.2H382z"/>
<path class="st0" d="M436.5,284l-0.6,8.4c-1.4-0.4-2.9-0.6-4.3-0.5c-8.5,0-13.9,10.1-13.9,19.4v31.7h-8.5v-58.6h7.4l0.6,11
	c3.2-7.2,8.2-12.2,14.2-12.2C433.1,283.2,434.8,283.4,436.5,284z"/>
<path class="st0" d="M489.1,337.1c-2.9,2.5-10.5,6-22.2,6c-18.2,0-27.3-11-27.3-29.6c0-17.6,8.9-30.3,27.9-30.3
	c15,0,21.2,7.8,21.2,16.5c0,14.5-12.2,19.1-40.2,20.2c1.7,11.3,8.8,15.6,19,15.6c7.1,0,14-2.1,19.9-6.2L489.1,337.1z M448.1,313
	c24.5-0.9,32.2-3.7,32.2-12.7c0-4.6-3.2-9.5-13-9.5C456.9,290.7,448.4,296.5,448.1,313z"/>
<path class="st0" d="M546.4,284.4v58.7h-7.1l-0.9-9.7c-3.8,5.7-10.2,9.7-19,9.7c-15.1,0-24.9-10.7-24.9-29c0-19.3,10.8-30.9,26-30.9
	c8.6,0,14.5,3.4,17.9,8.3l0.8-7h7.1V284.4z M537.9,319.3V309c0-8-4-18.4-16.5-18.4c-11.7,0-18.4,8.9-18.4,23.4
	c0,13.8,6.3,21.4,17.6,21.4C531.3,335.5,537.9,328.5,537.9,319.3L537.9,319.3z"/>
<path class="st0" d="M643.8,306v37.3h-8.5v-35.9c0-10.3-4-16.4-12.8-16.4c-8.8-0.3-16.2,6.7-16.5,15.5c0,0.1,0,0.3,0,0.4v36.3h-8.3
	v-36.5c0-10-4.1-15.8-12.8-15.8c-8.9-0.2-16.2,6.8-16.4,15.7c0,0.1,0,0.3,0,0.4v36.2H560v-58.8h6.6l1.2,9.8c3.4-6.3,9.9-11,19.3-11
	c8.8,0,14.9,4.1,17.4,11.9c3.3-6.9,10.2-11.9,20-11.9C636.9,283.2,643.8,290.8,643.8,306z"/>
<path class="st0" d="M717.7,257L687,309.1v33.8h-15.9v-33.8L640.4,257h17.9l20.8,37.2l21-37.2H717.7z"/>
<path class="st0" d="M762.6,284.4v58.7h-11.8l-1.9-8.4c-3.8,5.2-10,8.4-18.2,8.4c-15,0-25.4-10.9-25.4-29.1
	c0-19.2,11.4-30.8,26.5-30.8c7.9,0,13.4,3,17,7.3l1.3-6.1H762.6z M747,317.2v-8.3c-0.6-6.7-4.3-12.5-12.6-12.5s-14,6-14,17.3
	c0,10.6,4.9,16.1,13.4,16.1C742.2,329.8,747,324.5,747,317.2z"/>
<path class="st0" d="M807,284.1l-0.9,14.9c-1.7-0.6-3.4-0.9-5.2-0.8c-6,0-11.6,5.5-11.6,16.4v28.3h-15.6v-58.5h12.6l1.3,8.6
	c3.1-6,7.8-9.8,13.7-9.8C803.2,283.1,805.2,283.4,807,284.1z"/>
<path class="st0" d="M865,257v86.1h-13.1l-1.5-8c-4.7,5.3-11.5,8.2-18.5,8c-13.8,0-23.9-9.5-23.9-29c0-19.5,10.8-30.9,27.8-30.9
	c4.7-0.1,9.3,0.8,13.6,2.5V257H865z M849.3,315.3V300c-3.4-2.4-7.6-3.6-11.8-3.5c-8.3,0-13.9,5.5-13.9,17.4c0,11.5,5.2,16,11.9,16
	C843.1,329.8,849.3,324.1,849.3,315.3z"/>
<path class="st0" d="M251.8,309.2c-1.5-1-3-2.1-4.4-3.1c-9.2-6.6-20-17.9-22.1-20.1c-1.2-8.4-4.3-16.4-9.1-23.4
	c-4.8-8.5-13.4-13.5-18.6-15.8c-4.4-11.6-26.3-13.3-34.8-13.9c-1-0.1-2-0.1-3-0.1c-16.7,0-20.1,11.7-20.8,16.5
	c-3.8,0.2-7.5,1.2-10.9,3.1c-9.6,5.7-12.3,17.2-12.9,25.8c-0.5,8-0.1,11.2,0,11.8c0.7,6.5,2.4,11.3,9,16.6c-4.3,20-5.9,43.4-6,43.7
	l-0.1,0.6l0.3,0.5c0.3,0.5,9.3,12.4,28.9,13.5c0.8,0.1,1.8,0.1,2.6,0.1c21.5,0,29.3-17,29.7-17.6l0.3-0.7l-0.2-0.7
	c0,0-1.9-5.4,1-15.2c2.4-8.2,11-9.6,13.3-9.8c10.4,8,39.2,23.4,46.7,26.4c3.3,1.5,6.9,2.3,10.5,2.4c3.8,0,6.6-1.2,7.9-3.2
	c2.2-3.7,1.8-7.2-1.3-10.3c0.8,0.2,1.8,0.3,2.9,0.4c1.2,0.2,2.4,0.3,3.6,0.2c4.6,0,7.2-2.2,7.9-6.8
	C273.1,324.5,264.7,318.1,251.8,309.2z M150.1,363.4L150.1,363.4z M159.4,234.6h1C160.1,234.5,159.8,234.5,159.4,234.6z
	 M171.1,235.5l3.7,0.5C173.5,235.9,172.2,235.6,171.1,235.5z"/>
<path class="st0" d="M246.9,307.5c-10.4-7.4-22.7-20.7-22.7-20.7c-1.1-8.3-4.2-16.3-8.9-23.2c-4.8-8.7-14-13.5-18.5-15.4
	c-3.3-11.1-25.2-12.9-33.5-13.5c-22.6-1.7-22.2,17.1-22.2,17.1l-8.1,27.4l-6.1,26.4c-4.7,20.5-6.3,44.8-6.3,44.8s8.5,11.7,27.7,12.9
	c22.6,1.4,30.6-16.6,30.6-16.6s-2.2-5.7,1-16.4c3.2-10.7,15.5-11.1,15.5-11.1c9.9,7.9,39.4,23.6,46.8,26.6
	c8.7,3.6,14.8,2.4,16.4-0.2c1.6-2.6,2.2-5.8-2.5-9.5c-3.1-2.4-4.9-3.7-4.9-3.7c3.5,0.8,3.9,1.7,10.8,2.6c4.8,0.6,8.7,0.6,9.5-5
	C272,324.2,258,315.3,246.9,307.5z"/>
<path class="st1" d="M150.5,348.6c-13.2-0.4-20.9-5-23.5-6.8l-0.9,6.6c0,0,10.1,9.7,23.5,9.7c4.8,0,14.1,0.5,23.3-11.8
	c-0.2-2-0.3-4.1-0.2-6.1C169.4,343.6,164.5,349,150.5,348.6z"/>
<path class="st0" d="M126.1,341.1l0.9,0.7l0.1-0.8L126.1,341.1z"/>
<path class="st0" d="M174.3,338.7l-1.5,0.1c0,0.5-0.1,0.9-0.1,1.4C173.3,339.7,173.8,339.2,174.3,338.7z"/>
<path class="st2" d="M217.3,277.8c-5.4-13.5-15.4-24.3-26.5-28s-27.9-7-33.1,5.8c0,0-24.6,43.5-26.2,53.7l-4.3,31.7l-0.1,0.8
	c2.5,1.8,10.3,6.4,23.5,6.8c13.9,0.4,19-5,22.2-8.4c0-0.4,0.1-0.9,0.1-1.5c0.4-4.9,1.7-11.1,5.4-15.8c7.1-9,19.5-9.4,19.5-9.4
	s9.4,1.1,15.9-5.8S222.6,291.4,217.3,277.8z"/>
<path class="st3" d="M225.3,315.5c0,0,9.2,8.4,12.5,11.2c3.3,2.9,17.3,12.9,17.4,15.1c0,0.5-35-16.4-35-16.4s-30-21.2-29.8-21.8
	c0.2-0.6,1.2-4.9,1.9-5.1s14.8,0.2,14.8,0.2L225.3,315.5z"/>
<path class="st4" d="M192.1,304c2.4,0.3,16.1,5.6,24.1,12.3c7.9,6.6,21.5,16.2,25.4,18.1c3.9,1.9,13.9,6.1,13.6,7.8
	s-1.4,4.3-10.5,0.7c-9.1-3.7-32.8-18.1-36.1-20.4c-3.3-2.3-20.2-14.1-20.2-14.1L192.1,304z"/>
<path class="st5" d="M165.2,277.3c7.8-1,15.6,1.6,21.2,7.1c7.8,7.7,9.1,13.8,6.9,19.3c-2.2,5.5-6.2,9.5-14.2,5.2
	c-8-4.3-15.7-9.7-18.2-16.4C158.5,285.8,165.2,277.3,165.2,277.3z"/>
<path class="st0" d="M117.5,289.9c0.8,6.9,2.7,11.5,10.5,17.1c3.6,2.6,7.4,4.6,15.6,3.9s14.1-6.3,16.9-12.4s7.4-20.3,4-31.7
	c-3.4-11.4-9.6-13-12.7-14c-3.1-1-14-3.8-22.4,1.2c-8.4,4.9-11.5,15-12,24.5C116.9,287.1,117.5,289.9,117.5,289.9z"/>
<path class="st6" d="M132,259.5c0,0,4.3-2.8,12.2-1.1s12.9,7.5,12.9,14.5s-0.8,19.9-7.3,26.3c-5.3,5.3-19,8-24.6-2.7
	c-5.6-10.7,8.1-18.6,8.1-18.6L132,259.5z"/>
<path class="st5" d="M173.7,266.8c-1.1-3.5,1.8-8,9-9.5c7.2-1.5,14.6,0,18.5,6.9c3.8,6.9-3.4,10.3-7.6,11.3S176.4,275.4,173.7,266.8
	z"/>
<path class="st7" d="M183.8,280c0.7-5,3.8-8.7,7-9c1.4-0.1,2.7,0.5,3.5,1.7c-0.4-1.3-1.1-2.5-1.9-3.6c-3.5-3.9-10.3-0.8-12.4,7
	c-2.1,7.8,0.8,14,3.8,14.8c1.2,0.4,2.5,0.4,3.7,0.1c-0.2-0.1-0.5-0.1-0.7-0.3C182.3,288.5,183.5,281.9,183.8,280z"/>
<path class="st0" d="M194.3,272.7c1.1,3.9,0.8,8.1-0.8,11.9c-1.4,2.9-3.3,5.6-6,6.4"/>
<path class="st0" d="M193.5,284.5c1.6-3.7,1.9-7.9,0.8-11.9c-0.8-1.2-2.1-1.8-3.5-1.7c-3.2,0.3-6.4,4-7,9c-0.2,1.9-1.3,8.5,3.1,10.6
	c0.3,0.1,0.4,0.2,0.7,0.3C190.3,290.2,192.1,287.4,193.5,284.5z"/>
<path class="st8" d="M260.5,327.1c-2.1-2-4.8-4.3-3.9-5.4c0.5-0.6,1.8-0.7,3.6,0c-3.9-2.7-8.8-6-14-9.8
	c-11.9-8.4-25.9-21.8-27.3-22.8c-4.8-3.6-5.7,0.3-5.8,2.1c-0.1,1.9-0.1,4.2-4.4,6.1c-4.3,2-9.2,0.1-12.1-0.3s-2.7,2-1.3,3.2
	c4.8,3.9,54,28.3,64.3,30.4c0.3,0.1,0.6,0.1,0.9,0.2C261,330,262,328.5,260.5,327.1z"/>
<path class="st4" d="M267.6,329.2c0.3-1.4-2.8-4-7.5-7.5c-1.8-0.8-3.1-0.6-3.6,0c-0.8,0.9,1.9,3.3,3.9,5.4c1,0.9,1.1,2.4,0.2,3.4
	c-0.1,0.1-0.2,0.2-0.2,0.2C266,331.9,267.1,331.6,267.6,329.2z"/>
<path class="st4" d="M217.7,300.7c0.8,2.1,4.9,4.4,7.1,3.9c2.2-0.5,1.2-2.8-1.6-5.5C220.4,296.4,216.1,296.5,217.7,300.7z"/>
<path class="st0" d="M137.8,309.7l0.5,47.2l5.7,1.8l-0.8-49L137.8,309.7z"/>
<path class="st9" d="M149.3,292.5c-4.4,10.2-11.9,9.9-18.2,8.3c-6.7-1.7-8.4-8.4-8.7-14.8c-0.1-3.4,1.2-17.6,5.5-23.4
	c4.3-5.8,12.4-4.3,14.8-3.7c6.9,2.3,11.1,9.1,10.1,16.3C151.5,287,151,288.7,149.3,292.5z"/>
<path class="st6" d="M127.1,290.2l1.4-5.1c0,0,6,3.2,8.9,2s1.5-4.2-1.6-5.5c-3.1-1.3-7.1-3.5-5.5-9.8s5.8-8.2,15.8-4.4l-1.8,5.5
	c0,0-8.2-4.2-8.9,0.3c-0.5,3.3,11.3,3.8,9.2,13C141.6,298,127.1,290.2,127.1,290.2z"/>
</svg>
