<svg version="1.1" id="Layer_1" xmlns="http://www.w3.org/2000/svg" xmlns:xlink="http://www.w3.org/1999/xlink" x="0px" y="0px"
	 width="100%" viewBox="0 0 1220 500" enable-background="new 0 0 1220 500" xml:space="preserve">
<path fill="#FFFFFF" opacity="1.000000" stroke="none" 
	d="
M753.000000,501.000000 
	C502.000031,501.000000 251.500061,501.000000 1.000067,501.000000 
	C1.000045,334.333374 1.000045,167.666763 1.000022,1.000112 
	C407.666595,1.000075 814.333191,1.000075 1220.999756,1.000037 
	C1220.999878,167.666550 1220.999878,334.333099 1221.000000,500.999817 
	C1065.166626,501.000000 909.333313,501.000000 753.000000,501.000000 
M762.907410,284.689697 
	C768.013550,300.085876 773.119690,315.482056 778.267944,331.005157 
	C789.011047,331.005157 799.504089,330.875366 809.990479,331.083801 
	C813.157471,331.146820 814.580139,330.274750 815.601929,327.143097 
	C821.930847,307.747101 828.516663,288.434937 835.016724,269.094757 
	C842.832642,245.839462 850.648132,222.584015 858.463806,199.328629 
	C858.769165,199.316772 859.074585,199.304916 859.379944,199.293060 
	C866.845825,243.118057 874.311768,286.943054 881.771362,330.730896 
	C895.052368,330.730896 907.965942,330.730896 921.109497,330.730896 
	C909.122070,259.799133 897.186829,189.176117 885.242432,118.498634 
	C873.102783,118.498634 861.607361,118.614029 850.117004,118.424210 
	C846.912659,118.371284 845.610229,119.362885 844.581116,122.475586 
	C834.478210,153.031845 824.160950,183.517197 813.903320,214.022293 
	C808.192444,231.005753 802.479370,247.988449 796.376343,266.133728 
	C779.671570,216.188217 763.330627,167.330750 747.000488,118.505356 
	C734.688293,118.505356 722.858154,118.583977 711.030518,118.446449 
	C708.298706,118.414673 707.363281,119.272102 706.911377,121.988365 
	C703.363159,143.313248 699.640381,164.609161 695.952942,185.910797 
	C689.456543,223.439316 682.941223,260.964508 676.446655,298.493317 
	C674.591431,309.213470 672.780579,319.941284 670.950745,330.657623 
	C684.554321,330.657623 697.635559,330.657623 710.624817,330.657623 
	C718.176941,287.019287 725.668518,243.730988 733.160034,200.442688 
	C733.609985,200.366989 734.059937,200.291306 734.509888,200.215607 
	C743.887695,228.123978 753.265564,256.032349 762.907410,284.689697 
M125.500000,171.001236 
	C140.254395,171.001236 155.008804,171.001236 169.611847,171.001236 
	C169.611847,132.258972 169.611847,94.212173 169.611847,56.257088 
	C131.292770,56.257088 93.365311,56.257088 55.307983,56.257088 
	C55.307983,94.559357 55.307983,132.602844 55.307983,171.001236 
	C78.577385,171.001236 101.538689,171.001236 125.500000,171.001236 
M307.998810,75.500427 
	C307.998810,69.077171 307.998810,62.653915 307.998810,56.396275 
	C269.242065,56.396275 231.197113,56.396275 193.263718,56.396275 
	C193.263718,94.723785 193.263718,132.651428 193.263718,170.689697 
	C231.570740,170.689697 269.613953,170.689697 307.998810,170.689697 
	C307.998810,139.086044 307.998810,107.793121 307.998810,75.500427 
M356.500000,170.999283 
	C386.582214,170.999283 416.664429,170.999283 446.601807,170.999283 
	C446.601807,132.268646 446.601807,94.225281 446.601807,56.263706 
	C408.277466,56.263706 370.351410,56.263706 332.298706,56.263706 
	C332.298706,94.582405 332.298706,132.628113 332.298706,170.999283 
	C340.230591,170.999283 347.865295,170.999283 356.500000,170.999283 
M54.998573,220.500000 
	C54.998573,249.914200 54.998573,279.328400 54.998573,308.615479 
	C93.741310,308.615479 131.786209,308.615479 169.750061,308.615479 
	C169.750061,270.302277 169.750061,232.375336 169.750061,194.303421 
	C131.435959,194.303421 93.390343,194.303421 54.998569,194.303421 
	C54.998569,202.901337 54.998569,211.200668 54.998573,220.500000 
M228.500000,309.001190 
	C254.918320,309.001190 281.336639,309.001190 307.622833,309.001190 
	C307.622833,270.269196 307.622833,232.220688 307.622833,194.253036 
	C269.305084,194.253036 231.373901,194.253036 193.300827,194.253036 
	C193.300827,232.556061 193.300827,270.604034 193.300827,309.001190 
	C204.898651,309.001190 216.199326,309.001190 228.500000,309.001190 
M436.476562,309.001190 
	C439.905548,309.001190 443.334534,309.001190 446.628601,309.001190 
	C446.628601,270.274811 446.628601,232.228531 446.628601,194.253815 
	C408.306427,194.253815 370.379791,194.253815 332.296753,194.253815 
	C332.296753,232.563568 332.296753,270.609039 332.296753,309.001160 
	C366.896759,309.001160 401.189270,309.001160 436.476562,309.001190 
M170.002350,431.498108 
	C170.002350,398.756653 170.002350,366.015228 170.002350,333.380798 
	C131.274902,333.380798 93.233643,333.380798 55.252586,333.380798 
	C55.252586,371.689514 55.252586,409.611053 55.252586,447.693359 
	C93.559608,447.693359 131.599243,447.693359 170.002350,447.693359 
	C170.002350,442.427368 170.002350,437.461975 170.002350,431.498108 
M299.453613,447.999573 
	C302.220337,447.999573 304.987061,447.999573 307.631805,447.999573 
	C307.631805,409.287384 307.631805,371.237946 307.631805,333.242249 
	C269.322968,333.242249 231.391510,333.242249 193.293121,333.242249 
	C193.293121,371.537811 193.293121,409.586304 193.293121,447.999573 
	C228.544098,447.999573 263.503693,447.999573 299.453613,447.999573 
M447.000000,386.500000 
	C447.000000,368.747253 447.000000,350.994507 447.000000,333.383240 
	C408.267212,333.383240 370.220490,333.383240 332.258423,333.383240 
	C332.258423,371.704346 332.258423,409.631927 332.258423,447.699829 
	C370.574249,447.699829 408.619263,447.699829 447.000000,447.699829 
	C447.000000,427.427612 447.000000,407.463806 447.000000,386.500000 
M1017.011719,307.486542 
	C1011.538025,315.087097 1006.064331,322.687653 1000.072815,331.007172 
	C1014.598694,331.007172 1028.056396,330.892944 1041.509277,331.093445 
	C1044.585327,331.139282 1046.262085,330.029510 1047.953003,327.647827 
	C1058.259644,313.130432 1068.713867,298.717682 1079.134033,284.280945 
	C1080.136475,282.892059 1081.241577,281.577301 1082.486328,279.989014 
	C1094.362183,296.347839 1105.871704,312.247955 1117.468384,328.084259 
	C1118.349365,329.287292 1119.838257,330.856628 1121.062988,330.872894 
	C1135.639038,331.066650 1150.218384,330.997803 1165.630371,330.997803 
	C1164.474121,329.382324 1163.840332,328.486969 1163.196655,327.598877 
	C1144.933594,302.403381 1126.740967,277.155975 1108.318604,252.077469 
	C1105.902100,248.787949 1105.995972,246.801788 1108.392212,243.558609 
	C1121.345459,226.027054 1134.008789,208.281158 1146.757935,190.598953 
	C1150.588135,185.286652 1154.373047,179.941727 1158.617798,173.996841 
	C1144.384644,173.996841 1131.088379,174.115601 1117.796875,173.914322 
	C1114.424316,173.863235 1112.487793,174.954163 1110.552124,177.707611 
	C1101.472778,190.623398 1092.123291,203.349258 1082.655640,216.439407 
	C1073.024536,203.178558 1063.580688,190.331482 1054.352783,177.331207 
	C1052.620483,174.890778 1050.896118,173.883072 1047.879517,173.924011 
	C1035.215820,174.095886 1022.548340,173.988373 1009.882263,174.011246 
	C1008.683960,174.013412 1007.486023,174.211777 1005.897583,174.353989 
	C1024.006104,199.333145 1041.767090,223.833054 1059.608276,248.443527 
	C1045.447876,268.047913 1031.422485,287.465302 1017.011719,307.486542 
M504.638367,184.922653 
	C524.983093,232.671432 545.306458,280.429382 565.783997,328.121094 
	C566.352295,329.444489 568.545776,330.818726 570.029724,330.874084 
	C577.509399,331.153290 585.005005,331.002319 592.734375,331.002319 
	C615.030212,278.798340 637.306274,226.640808 659.790649,173.995529 
	C646.602600,173.995529 634.446472,174.099518 622.294678,173.916992 
	C619.515259,173.875244 618.749268,175.186371 617.830017,177.350937 
	C605.965454,205.289368 594.007080,233.187988 582.065674,261.093750 
	C581.449585,262.533539 580.771606,263.946777 579.813110,266.051575 
	C566.498047,234.797806 553.574890,204.463806 540.643127,174.109741 
	C527.123169,174.109741 513.810608,174.109741 500.121368,174.109741 
	C501.528870,177.591034 502.879272,180.931183 504.638367,184.922653 
M944.474548,254.499756 
	C944.474548,279.929932 944.474548,305.360107 944.474548,330.705200 
	C957.989685,330.705200 970.901855,330.705200 983.729004,330.705200 
	C983.729004,278.349335 983.729004,226.294159 983.729004,174.300278 
	C970.561462,174.300278 957.672119,174.300278 944.474609,174.300278 
	C944.474609,200.903625 944.474609,227.201691 944.474548,254.499756 
M944.148010,150.274628 
	C945.047241,151.253769 945.908508,152.271240 946.851685,153.206055 
	C954.518250,160.805206 965.970032,162.797028 975.313049,158.177307 
	C985.479248,153.150589 990.824951,142.963058 989.377197,131.374710 
	C988.058594,120.820396 980.194702,111.950378 970.044250,109.807503 
	C959.200989,107.518372 950.117004,110.747505 943.790955,119.784309 
	C936.983643,129.508636 937.524475,139.692001 944.148010,150.274628 
z"/>
<path fill="#020202" opacity="1.000000" stroke="none" 
	d="
M762.775391,284.315216 
	C753.265564,256.032349 743.887695,228.123978 734.509888,200.215607 
	C734.059937,200.291306 733.609985,200.366989 733.160034,200.442688 
	C725.668518,243.730988 718.176941,287.019287 710.624817,330.657623 
	C697.635559,330.657623 684.554321,330.657623 670.950745,330.657623 
	C672.780579,319.941284 674.591431,309.213470 676.446655,298.493317 
	C682.941223,260.964508 689.456543,223.439316 695.952942,185.910797 
	C699.640381,164.609161 703.363159,143.313248 706.911377,121.988365 
	C707.363281,119.272102 708.298706,118.414673 711.030518,118.446449 
	C722.858154,118.583977 734.688293,118.505356 747.000488,118.505356 
	C763.330627,167.330750 779.671570,216.188217 796.376343,266.133728 
	C802.479370,247.988449 808.192444,231.005753 813.903320,214.022293 
	C824.160950,183.517197 834.478210,153.031845 844.581116,122.475586 
	C845.610229,119.362885 846.912659,118.371284 850.117004,118.424210 
	C861.607361,118.614029 873.102783,118.498634 885.242432,118.498634 
	C897.186829,189.176117 909.122070,259.799133 921.109497,330.730896 
	C907.965942,330.730896 895.052368,330.730896 881.771362,330.730896 
	C874.311768,286.943054 866.845825,243.118057 859.379944,199.293060 
	C859.074585,199.304916 858.769165,199.316772 858.463806,199.328629 
	C850.648132,222.584015 842.832642,245.839462 835.016724,269.094757 
	C828.516663,288.434937 821.930847,307.747101 815.601929,327.143097 
	C814.580139,330.274750 813.157471,331.146820 809.990479,331.083801 
	C799.504089,330.875366 789.011047,331.005157 778.267944,331.005157 
	C773.119690,315.482056 768.013550,300.085876 762.775391,284.315216 
z"/>
<path fill="#2F78BC" opacity="1.000000" stroke="none" 
	d="
M125.000000,171.001236 
	C101.538689,171.001236 78.577385,171.001236 55.307983,171.001236 
	C55.307983,132.602844 55.307983,94.559357 55.307983,56.257088 
	C93.365311,56.257088 131.292770,56.257088 169.611847,56.257088 
	C169.611847,94.212173 169.611847,132.258972 169.611847,171.001236 
	C155.008804,171.001236 140.254395,171.001236 125.000000,171.001236 
z"/>
<path fill="#2F78BC" opacity="1.000000" stroke="none" 
	d="
M307.998810,76.000305 
	C307.998810,107.793121 307.998810,139.086044 307.998810,170.689697 
	C269.613953,170.689697 231.570740,170.689697 193.263718,170.689697 
	C193.263718,132.651428 193.263718,94.723785 193.263718,56.396275 
	C231.197113,56.396275 269.242065,56.396275 307.998810,56.396275 
	C307.998810,62.653915 307.998810,69.077171 307.998810,76.000305 
z"/>
<path fill="#44B549" opacity="1.000000" stroke="none" 
	d="
M356.000000,170.999283 
	C347.865295,170.999283 340.230591,170.999283 332.298706,170.999283 
	C332.298706,132.628113 332.298706,94.582405 332.298706,56.263706 
	C370.351410,56.263706 408.277466,56.263706 446.601807,56.263706 
	C446.601807,94.225281 446.601807,132.268646 446.601807,170.999283 
	C416.664429,170.999283 386.582214,170.999283 356.000000,170.999283 
z"/>
<path fill="#2F78BC" opacity="1.000000" stroke="none" 
	d="
M54.998573,220.000000 
	C54.998569,211.200668 54.998569,202.901337 54.998569,194.303421 
	C93.390343,194.303421 131.435959,194.303421 169.750061,194.303421 
	C169.750061,232.375336 169.750061,270.302277 169.750061,308.615479 
	C131.786209,308.615479 93.741310,308.615479 54.998573,308.615479 
	C54.998573,279.328400 54.998573,249.914200 54.998573,220.000000 
z"/>
<path fill="#2F78BC" opacity="1.000000" stroke="none" 
	d="
M228.000000,309.001190 
	C216.199326,309.001190 204.898651,309.001190 193.300827,309.001190 
	C193.300827,270.604034 193.300827,232.556061 193.300827,194.253036 
	C231.373901,194.253036 269.305084,194.253036 307.622833,194.253036 
	C307.622833,232.220688 307.622833,270.269196 307.622833,309.001190 
	C281.336639,309.001190 254.918320,309.001190 228.000000,309.001190 
z"/>
<path fill="#2F78BC" opacity="1.000000" stroke="none" 
	d="
M435.979156,309.001160 
	C401.189270,309.001160 366.896759,309.001160 332.296753,309.001160 
	C332.296753,270.609039 332.296753,232.563568 332.296753,194.253815 
	C370.379791,194.253815 408.306427,194.253815 446.628601,194.253815 
	C446.628601,232.228531 446.628601,270.274811 446.628601,309.001190 
	C443.334534,309.001190 439.905548,309.001190 435.979156,309.001160 
z"/>
<path fill="#F9A31A" opacity="1.000000" stroke="none" 
	d="
M170.002350,431.997314 
	C170.002350,437.461975 170.002350,442.427368 170.002350,447.693359 
	C131.599243,447.693359 93.559608,447.693359 55.252586,447.693359 
	C55.252586,409.611053 55.252586,371.689514 55.252586,333.380798 
	C93.233643,333.380798 131.274902,333.380798 170.002350,333.380798 
	C170.002350,366.015228 170.002350,398.756653 170.002350,431.997314 
z"/>
<path fill="#2F78BC" opacity="1.000000" stroke="none" 
	d="
M298.958435,447.999573 
	C263.503693,447.999573 228.544098,447.999573 193.293121,447.999573 
	C193.293121,409.586304 193.293121,371.537811 193.293121,333.242249 
	C231.391510,333.242249 269.322968,333.242249 307.631805,333.242249 
	C307.631805,371.237946 307.631805,409.287384 307.631805,447.999573 
	C304.987061,447.999573 302.220337,447.999573 298.958435,447.999573 
z"/>
<path fill="#2F78BC" opacity="1.000000" stroke="none" 
	d="
M447.000000,387.000000 
	C447.000000,407.463806 447.000000,427.427612 447.000000,447.699829 
	C408.619263,447.699829 370.574249,447.699829 332.258423,447.699829 
	C332.258423,409.631927 332.258423,371.704346 332.258423,333.383240 
	C370.220490,333.383240 408.267212,333.383240 447.000000,333.383240 
	C447.000000,350.994507 447.000000,368.747253 447.000000,387.000000 
z"/>
<path fill="#020202" opacity="1.000000" stroke="none" 
	d="
M1017.204407,307.184631 
	C1031.422485,287.465302 1045.447876,268.047913 1059.608276,248.443527 
	C1041.767090,223.833054 1024.006104,199.333145 1005.897583,174.353989 
	C1007.486023,174.211777 1008.683960,174.013412 1009.882263,174.011246 
	C1022.548340,173.988373 1035.215820,174.095886 1047.879517,173.924011 
	C1050.896118,173.883072 1052.620483,174.890778 1054.352783,177.331207 
	C1063.580688,190.331482 1073.024536,203.178558 1082.655640,216.439407 
	C1092.123291,203.349258 1101.472778,190.623398 1110.552124,177.707611 
	C1112.487793,174.954163 1114.424316,173.863235 1117.796875,173.914322 
	C1131.088379,174.115601 1144.384644,173.996841 1158.617798,173.996841 
	C1154.373047,179.941727 1150.588135,185.286652 1146.757935,190.598953 
	C1134.008789,208.281158 1121.345459,226.027054 1108.392212,243.558609 
	C1105.995972,246.801788 1105.902100,248.787949 1108.318604,252.077469 
	C1126.740967,277.155975 1144.933594,302.403381 1163.196655,327.598877 
	C1163.840332,328.486969 1164.474121,329.382324 1165.630371,330.997803 
	C1150.218384,330.997803 1135.639038,331.066650 1121.062988,330.872894 
	C1119.838257,330.856628 1118.349365,329.287292 1117.468384,328.084259 
	C1105.871704,312.247955 1094.362183,296.347839 1082.486328,279.989014 
	C1081.241577,281.577301 1080.136475,282.892059 1079.134033,284.280945 
	C1068.713867,298.717682 1058.259644,313.130432 1047.953003,327.647827 
	C1046.262085,330.029510 1044.585327,331.139282 1041.509277,331.093445 
	C1028.056396,330.892944 1014.598694,331.007172 1000.072815,331.007172 
	C1006.064331,322.687653 1011.538025,315.087097 1017.204407,307.184631 
z"/>
<path fill="#020202" opacity="1.000000" stroke="none" 
	d="
M504.434021,184.596985 
	C502.879272,180.931183 501.528870,177.591034 500.121368,174.109741 
	C513.810608,174.109741 527.123169,174.109741 540.643127,174.109741 
	C553.574890,204.463806 566.498047,234.797806 579.813110,266.051575 
	C580.771606,263.946777 581.449585,262.533539 582.065674,261.093750 
	C594.007080,233.187988 605.965454,205.289368 617.830017,177.350937 
	C618.749268,175.186371 619.515259,173.875244 622.294678,173.916992 
	C634.446472,174.099518 646.602600,173.995529 659.790649,173.995529 
	C637.306274,226.640808 615.030212,278.798340 592.734375,331.002319 
	C585.005005,331.002319 577.509399,331.153290 570.029724,330.874084 
	C568.545776,330.818726 566.352295,329.444489 565.783997,328.121094 
	C545.306458,280.429382 524.983093,232.671432 504.434021,184.596985 
z"/>
<path fill="#030303" opacity="1.000000" stroke="none" 
	d="
M944.474609,253.999756 
	C944.474609,227.201691 944.474609,200.903625 944.474609,174.300278 
	C957.672119,174.300278 970.561462,174.300278 983.729004,174.300278 
	C983.729004,226.294159 983.729004,278.349335 983.729004,330.705200 
	C970.901855,330.705200 957.989685,330.705200 944.474548,330.705200 
	C944.474548,305.360107 944.474548,279.929932 944.474609,253.999756 
z"/>
<path fill="#030303" opacity="1.000000" stroke="none" 
	d="
M943.954224,149.966644 
	C937.524475,139.692001 936.983643,129.508636 943.790955,119.784309 
	C950.117004,110.747505 959.200989,107.518372 970.044250,109.807503 
	C980.194702,111.950378 988.058594,120.820396 989.377197,131.374710 
	C990.824951,142.963058 985.479248,153.150589 975.313049,158.177307 
	C965.970032,162.797028 954.518250,160.805206 946.851685,153.206055 
	C945.908508,152.271240 945.047241,151.253769 943.954224,149.966644 
z"/>
</svg>